<svg enable-background="new 0 0 512 512" viewBox="0 0 512 512" xmlns="http://www.w3.org/2000/svg"><path d="m198.566 288.721c-3.607 0-7.186-1.551-9.662-4.549-13.795-16.703-33.46-29.026-55.374-34.699-22.096-5.721-45.059-4.24-64.658 4.17-6.354 2.726-13.718-.214-16.445-6.57-2.727-6.355.214-13.718 6.57-16.445 50.554-21.693 113.309-5.881 149.216 37.596 4.404 5.332 3.651 13.225-1.681 17.629-2.333 1.927-5.158 2.868-7.966 2.868zm295.377-21.023c4.338-5.386 3.488-13.268-1.897-17.606-43.915-35.372-108.567-38.245-153.727-6.832-5.677 3.949-7.078 11.753-3.129 17.43 3.949 5.678 11.755 7.078 17.43 3.129 17.508-12.178 39.706-18.244 62.498-17.083 22.606 1.152 44.348 9.271 61.219 22.859 2.314 1.864 5.09 2.771 7.847 2.771 3.659 0 7.286-1.596 9.759-4.668z" fill="#76dfff"/><path d="m416.114 340.069-91.899-121.577 24.525-52.323c2.71-5.783.22-12.667-5.562-15.377s-12.666-.219-15.377 5.562l-23.353 49.822-103.238-9.869-10.403-35.278c-.593-2.009-1.72-3.819-3.261-5.238l-35.524-32.691c-4.699-4.324-12.014-4.021-16.338.678s-4.021 12.014.678 16.338l33.168 30.524 10.253 34.769-83.233 135.583c-3.341 5.442-1.638 12.562 3.805 15.904 1.887 1.158 3.975 1.71 6.038 1.71 3.887 0 7.683-1.96 9.865-5.515l76.645-124.85 59.701 86.39-11.672 27.063c-.038.089-.062.182-.098.272-.117.291-.223.582-.315.877-.042.134-.082.267-.119.402-.09.33-.163.661-.223.994-.017.096-.04.191-.054.288-.135.879-.165 1.761-.097 2.631.009.113.025.226.037.339.034.319.08.635.141.949.026.135.053.27.083.404.073.317.16.629.259.938.034.106.061.213.098.318.143.407.307.806.495 1.195.036.074.079.144.116.217.164.323.343.639.538.946.029.046.05.095.08.141.038.057.084.107.122.164.194.286.401.563.622.832.064.078.125.159.192.235.573.664 1.226 1.268 1.955 1.796.089.064.182.121.273.182.264.18.535.352.818.512.138.078.278.15.419.223.124.064.241.136.369.196.122.057.246.096.369.149.178.076.355.149.537.216.264.098.528.181.795.259.159.046.316.094.477.133.318.078.637.136.958.186.121.019.239.044.361.059.468.058.937.094 1.404.094.022 0 .044-.002.067-.002l155.225.767h.058c4.375 0 8.379-2.471 10.339-6.386 1.966-3.933 1.534-8.642-1.119-12.151zm-200.14-119.119 78.051 7.461-29.461 62.852zm53.723 113.851 43.422-92.638 70.449 93.2z" fill="#00b1ff"/><path d="m106.404 241.302c-58.399 0-105.74 47.342-105.74 105.74s47.341 105.74 105.74 105.74 105.74-47.341 105.74-105.74-47.341-105.74-105.74-105.74zm0 29.218c42.195 0 76.523 34.328 76.523 76.523s-34.328 76.523-76.523 76.523-76.523-34.328-76.523-76.523 34.328-76.523 76.523-76.523m300.487-29.218c-58.399 0-105.74 47.342-105.74 105.74s47.341 105.74 105.74 105.74 105.74-47.341 105.74-105.74-47.341-105.74-105.74-105.74zm0 29.218c42.195 0 76.523 34.328 76.523 76.523s-34.328 76.523-76.523 76.523-76.523-34.328-76.523-76.523 34.328-76.523 76.523-76.523m-223.487-121.996c-50.608 0-66.799-21.862-68.479-24.354-2.586-3.839-2.844-8.792-.67-12.878 2.174-4.087 6.426-6.641 11.055-6.641h35.373c6.916 0 12.522 5.606 12.522 12.522 0 2.101-.517 4.08-1.431 5.818 3.545.312 7.414.49 11.63.49 6.916 0 12.522 5.606 12.522 12.522s-5.606 12.521-12.522 12.521zm-64.135 198.518c0 7.105-5.76 12.865-12.865 12.865s-12.865-5.76-12.865-12.865 5.76-12.865 12.865-12.865 12.865 5.76 12.865 12.865zm300.399 0c0 7.057-5.721 12.777-12.777 12.777-7.057 0-12.777-5.72-12.777-12.777s5.721-12.777 12.777-12.777c7.057 0 12.777 5.721 12.777 12.777zm-126.495-199.576 65.803-5.372c9.994-.816 18.757 6.625 19.573 16.618.816 9.994-6.625 18.757-16.618 19.573-.757.062-1.508.076-2.248.046l-2.448-.12-65.392-3.154c-7.587-.366-13.441-6.813-13.075-14.4.337-6.985 5.827-12.5 12.617-13.047z" fill="#464a4c"/><circle cx="251.549" cy="346.274" fill="#597b91" r="24.348"/></svg>